<mxfile host="app.diagrams.net" modified="2021-10-23T03:09:13.018Z" agent="5.0 (Windows)" etag="IhgeLh-JV7hbzOI4eSGI" version="15.5.8" type="github">
  <diagram name="Page-1" id="58cdce13-f638-feb5-8d6f-7d28b1aa9fa0">
    <mxGraphModel dx="1038" dy="564" grid="1" gridSize="10" guides="1" tooltips="1" connect="1" arrows="1" fold="1" page="1" pageScale="1" pageWidth="1100" pageHeight="850" background="none" math="0" shadow="0">
      <root>
        <mxCell id="0" />
        <mxCell id="1" parent="0" />
        <mxCell id="QNuldeg3nvhpYGL2B9y5-1" value="Cliente" style="shape=umlActor;verticalLabelPosition=bottom;verticalAlign=top;html=1;outlineConnect=0;" vertex="1" parent="1">
          <mxGeometry x="140" y="340" width="30" height="60" as="geometry" />
        </mxCell>
        <mxCell id="QNuldeg3nvhpYGL2B9y5-2" value="Seleccionar piezas de computadora" style="ellipse;whiteSpace=wrap;html=1;" vertex="1" parent="1">
          <mxGeometry x="290" y="330" width="120" height="80" as="geometry" />
        </mxCell>
        <mxCell id="QNuldeg3nvhpYGL2B9y5-6" value="" style="endArrow=classic;html=1;rounded=0;" edge="1" parent="1" source="QNuldeg3nvhpYGL2B9y5-1" target="QNuldeg3nvhpYGL2B9y5-2">
          <mxGeometry width="50" height="50" relative="1" as="geometry">
            <mxPoint x="420" y="590" as="sourcePoint" />
            <mxPoint x="470" y="540" as="targetPoint" />
          </mxGeometry>
        </mxCell>
        <mxCell id="QNuldeg3nvhpYGL2B9y5-7" value="Jefe de Almacen" style="shape=umlActor;verticalLabelPosition=bottom;verticalAlign=top;html=1;outlineConnect=0;" vertex="1" parent="1">
          <mxGeometry x="870" y="380" width="30" height="60" as="geometry" />
        </mxCell>
        <mxCell id="QNuldeg3nvhpYGL2B9y5-8" value="Administrador del sistema" style="shape=umlActor;verticalLabelPosition=bottom;verticalAlign=top;html=1;outlineConnect=0;" vertex="1" parent="1">
          <mxGeometry x="500" y="750" width="30" height="60" as="geometry" />
        </mxCell>
        <mxCell id="QNuldeg3nvhpYGL2B9y5-9" value="Actualiza Inventario" style="ellipse;whiteSpace=wrap;html=1;" vertex="1" parent="1">
          <mxGeometry x="620" y="410" width="120" height="80" as="geometry" />
        </mxCell>
        <mxCell id="QNuldeg3nvhpYGL2B9y5-10" value="" style="endArrow=classic;html=1;rounded=0;entryX=1;entryY=0.5;entryDx=0;entryDy=0;exitX=0.5;exitY=0.5;exitDx=0;exitDy=0;exitPerimeter=0;" edge="1" parent="1" source="QNuldeg3nvhpYGL2B9y5-7" target="QNuldeg3nvhpYGL2B9y5-9">
          <mxGeometry width="50" height="50" relative="1" as="geometry">
            <mxPoint x="780" y="600" as="sourcePoint" />
            <mxPoint x="830" y="550" as="targetPoint" />
          </mxGeometry>
        </mxCell>
        <mxCell id="QNuldeg3nvhpYGL2B9y5-11" value="Recepción de Mercaderia" style="ellipse;whiteSpace=wrap;html=1;" vertex="1" parent="1">
          <mxGeometry x="680" y="500" width="120" height="80" as="geometry" />
        </mxCell>
        <mxCell id="QNuldeg3nvhpYGL2B9y5-12" value="" style="endArrow=classic;html=1;rounded=0;entryX=1;entryY=0.5;entryDx=0;entryDy=0;" edge="1" parent="1" source="QNuldeg3nvhpYGL2B9y5-7" target="QNuldeg3nvhpYGL2B9y5-11">
          <mxGeometry width="50" height="50" relative="1" as="geometry">
            <mxPoint x="860" y="640" as="sourcePoint" />
            <mxPoint x="910" y="590" as="targetPoint" />
          </mxGeometry>
        </mxCell>
        <mxCell id="QNuldeg3nvhpYGL2B9y5-13" value="Delivery" style="shape=umlActor;verticalLabelPosition=bottom;verticalAlign=top;html=1;outlineConnect=0;" vertex="1" parent="1">
          <mxGeometry x="130" y="510" width="30" height="60" as="geometry" />
        </mxCell>
        <mxCell id="QNuldeg3nvhpYGL2B9y5-14" value="Entrega Producto" style="ellipse;whiteSpace=wrap;html=1;" vertex="1" parent="1">
          <mxGeometry x="240" y="490" width="120" height="80" as="geometry" />
        </mxCell>
        <mxCell id="QNuldeg3nvhpYGL2B9y5-15" value="Gestión de Usuarios" style="ellipse;whiteSpace=wrap;html=1;" vertex="1" parent="1">
          <mxGeometry x="730" y="670" width="120" height="80" as="geometry" />
        </mxCell>
        <mxCell id="QNuldeg3nvhpYGL2B9y5-16" value="" style="endArrow=classic;html=1;rounded=0;exitX=0.5;exitY=0.5;exitDx=0;exitDy=0;exitPerimeter=0;" edge="1" parent="1" source="QNuldeg3nvhpYGL2B9y5-8" target="QNuldeg3nvhpYGL2B9y5-15">
          <mxGeometry width="50" height="50" relative="1" as="geometry">
            <mxPoint x="350" y="740" as="sourcePoint" />
            <mxPoint x="400" y="690" as="targetPoint" />
          </mxGeometry>
        </mxCell>
        <mxCell id="QNuldeg3nvhpYGL2B9y5-20" value="Gestiona Orden de Ventas" style="ellipse;whiteSpace=wrap;html=1;" vertex="1" parent="1">
          <mxGeometry x="420" y="640" width="120" height="80" as="geometry" />
        </mxCell>
        <mxCell id="QNuldeg3nvhpYGL2B9y5-21" value="Jefe de Ventas" style="shape=umlActor;verticalLabelPosition=bottom;verticalAlign=top;html=1;outlineConnect=0;" vertex="1" parent="1">
          <mxGeometry x="320" y="710" width="30" height="60" as="geometry" />
        </mxCell>
        <mxCell id="QNuldeg3nvhpYGL2B9y5-22" value="" style="endArrow=classic;html=1;rounded=0;entryX=0;entryY=1;entryDx=0;entryDy=0;exitX=0.5;exitY=0.5;exitDx=0;exitDy=0;exitPerimeter=0;" edge="1" parent="1" source="QNuldeg3nvhpYGL2B9y5-21" target="QNuldeg3nvhpYGL2B9y5-20">
          <mxGeometry width="50" height="50" relative="1" as="geometry">
            <mxPoint x="430" y="720" as="sourcePoint" />
            <mxPoint x="480" y="670" as="targetPoint" />
          </mxGeometry>
        </mxCell>
        <mxCell id="QNuldeg3nvhpYGL2B9y5-24" value="Autoriza despacho" style="ellipse;whiteSpace=wrap;html=1;" vertex="1" parent="1">
          <mxGeometry x="430" y="520" width="120" height="80" as="geometry" />
        </mxCell>
        <mxCell id="QNuldeg3nvhpYGL2B9y5-26" value="" style="endArrow=classic;html=1;rounded=0;entryX=1;entryY=0.5;entryDx=0;entryDy=0;exitX=0;exitY=0.5;exitDx=0;exitDy=0;" edge="1" parent="1" source="QNuldeg3nvhpYGL2B9y5-24" target="QNuldeg3nvhpYGL2B9y5-14">
          <mxGeometry width="50" height="50" relative="1" as="geometry">
            <mxPoint x="580" y="640" as="sourcePoint" />
            <mxPoint x="630" y="590" as="targetPoint" />
          </mxGeometry>
        </mxCell>
        <mxCell id="QNuldeg3nvhpYGL2B9y5-27" value="" style="endArrow=classic;html=1;rounded=0;" edge="1" parent="1" source="QNuldeg3nvhpYGL2B9y5-21" target="QNuldeg3nvhpYGL2B9y5-24">
          <mxGeometry width="50" height="50" relative="1" as="geometry">
            <mxPoint x="340" y="660" as="sourcePoint" />
            <mxPoint x="390" y="610" as="targetPoint" />
          </mxGeometry>
        </mxCell>
        <mxCell id="QNuldeg3nvhpYGL2B9y5-28" value="" style="endArrow=classic;html=1;rounded=0;exitX=0.5;exitY=0.5;exitDx=0;exitDy=0;exitPerimeter=0;entryX=0;entryY=0.5;entryDx=0;entryDy=0;" edge="1" parent="1" source="QNuldeg3nvhpYGL2B9y5-13" target="QNuldeg3nvhpYGL2B9y5-14">
          <mxGeometry width="50" height="50" relative="1" as="geometry">
            <mxPoint x="200" y="660" as="sourcePoint" />
            <mxPoint x="250" y="610" as="targetPoint" />
          </mxGeometry>
        </mxCell>
        <mxCell id="QNuldeg3nvhpYGL2B9y5-29" value="" style="endArrow=classic;html=1;rounded=0;exitX=0.225;exitY=0.1;exitDx=0;exitDy=0;exitPerimeter=0;" edge="1" parent="1" source="QNuldeg3nvhpYGL2B9y5-14" target="QNuldeg3nvhpYGL2B9y5-1">
          <mxGeometry width="50" height="50" relative="1" as="geometry">
            <mxPoint x="190" y="480" as="sourcePoint" />
            <mxPoint x="240" y="430" as="targetPoint" />
          </mxGeometry>
        </mxCell>
        <mxCell id="QNuldeg3nvhpYGL2B9y5-31" value="" style="endArrow=classic;html=1;rounded=0;exitX=0.35;exitY=0.975;exitDx=0;exitDy=0;exitPerimeter=0;entryX=0.5;entryY=0;entryDx=0;entryDy=0;" edge="1" parent="1" source="QNuldeg3nvhpYGL2B9y5-9" target="QNuldeg3nvhpYGL2B9y5-32">
          <mxGeometry width="50" height="50" relative="1" as="geometry">
            <mxPoint x="500" y="560" as="sourcePoint" />
            <mxPoint x="620" y="550" as="targetPoint" />
          </mxGeometry>
        </mxCell>
        <mxCell id="QNuldeg3nvhpYGL2B9y5-32" value="Verifica Precios" style="ellipse;whiteSpace=wrap;html=1;" vertex="1" parent="1">
          <mxGeometry x="570" y="580" width="120" height="80" as="geometry" />
        </mxCell>
        <mxCell id="QNuldeg3nvhpYGL2B9y5-33" value="" style="endArrow=classic;html=1;rounded=0;exitX=1;exitY=0.5;exitDx=0;exitDy=0;entryX=0.425;entryY=0.988;entryDx=0;entryDy=0;entryPerimeter=0;" edge="1" parent="1" source="QNuldeg3nvhpYGL2B9y5-20" target="QNuldeg3nvhpYGL2B9y5-32">
          <mxGeometry width="50" height="50" relative="1" as="geometry">
            <mxPoint x="600" y="720" as="sourcePoint" />
            <mxPoint x="650" y="670" as="targetPoint" />
          </mxGeometry>
        </mxCell>
        <mxCell id="QNuldeg3nvhpYGL2B9y5-34" value="Jefe de Finanzas" style="shape=umlActor;verticalLabelPosition=bottom;verticalAlign=top;html=1;outlineConnect=0;" vertex="1" parent="1">
          <mxGeometry x="630" y="290" width="30" height="60" as="geometry" />
        </mxCell>
        <mxCell id="QNuldeg3nvhpYGL2B9y5-35" value="Cobro de venta" style="ellipse;whiteSpace=wrap;html=1;" vertex="1" parent="1">
          <mxGeometry x="470" y="390" width="120" height="80" as="geometry" />
        </mxCell>
        <mxCell id="QNuldeg3nvhpYGL2B9y5-39" value="" style="endArrow=classic;html=1;rounded=0;" edge="1" parent="1" source="QNuldeg3nvhpYGL2B9y5-34" target="QNuldeg3nvhpYGL2B9y5-35">
          <mxGeometry width="50" height="50" relative="1" as="geometry">
            <mxPoint x="530" y="470" as="sourcePoint" />
            <mxPoint x="580" y="420" as="targetPoint" />
          </mxGeometry>
        </mxCell>
        <mxCell id="QNuldeg3nvhpYGL2B9y5-43" value="" style="endArrow=classic;html=1;rounded=0;entryX=0.025;entryY=0.25;entryDx=0;entryDy=0;entryPerimeter=0;exitX=1.025;exitY=0.588;exitDx=0;exitDy=0;exitPerimeter=0;" edge="1" parent="1" source="QNuldeg3nvhpYGL2B9y5-2" target="QNuldeg3nvhpYGL2B9y5-35">
          <mxGeometry width="50" height="50" relative="1" as="geometry">
            <mxPoint x="350" y="470" as="sourcePoint" />
            <mxPoint x="400" y="420" as="targetPoint" />
          </mxGeometry>
        </mxCell>
        <mxCell id="QNuldeg3nvhpYGL2B9y5-44" value="" style="endArrow=classic;html=1;rounded=0;exitX=0;exitY=1;exitDx=0;exitDy=0;" edge="1" parent="1" source="QNuldeg3nvhpYGL2B9y5-35" target="QNuldeg3nvhpYGL2B9y5-14">
          <mxGeometry width="50" height="50" relative="1" as="geometry">
            <mxPoint x="390" y="500" as="sourcePoint" />
            <mxPoint x="440" y="450" as="targetPoint" />
          </mxGeometry>
        </mxCell>
      </root>
    </mxGraphModel>
  </diagram>
</mxfile>
